<svg width="256" height="256" viewBox="0 0 256 256" fill="none" xmlns="http://www.w3.org/2000/svg">
<rect width="256" height="256" fill="#171717"/>
<path d="M105.5 42.5C105.5 42.5 108.5 66.5 122 77.5C135.5 88.5 150.5 97.5 154.5 108.5C154.5 108.5 139.5 87 105.5 84C92.5 83 81.5 86.5 81.5 86.5C81.5 86.5 96.5 117 143 125.5C143 125.5 145.5 133.5 147.5 139.5C147.5 139.5 125.5 129 102.5 130C79.5 131 59.5 145 51.5 174.5C51.5 174.5 46.5 173 42.5 176.5C38.5 180 39 187 44 193C49 199 53.5 199.5 53.5 199.5C53.5 199.5 54 185.5 63.5 181C63.5 181 47.5 200 65 222.5H135.5C135.5 222.5 144.5 207.5 128 196.5C128 196.5 137.5 198 146 209C154.5 220 160.5 222.5 160.5 222.5H176.5C176.5 222.5 180.5 213.5 169 210C157.5 206.5 164 190 164 190C164 190 166.5 176 193 164C219.5 152 230.5 140 230.5 120C230.5 120 210 93 180.5 93C172.5 93 165.5 93.5 161.5 96.5C161.5 96.5 158.5 60 105.5 42.5Z" fill="#FF5708"/>
<mask id="mask0" mask-type="alpha" maskUnits="userSpaceOnUse" x="41" y="42" width="195" height="179">
<path d="M105.5 42.5C105.5 42.5 108.5 66.5 122 77.5C135.5 88.5 150.5 97.5 154.5 108.5C154.5 108.5 139.5 87 105.5 84C92.5 83 81.5 86.5 81.5 86.5C81.5 86.5 96.5 117 143 125.5C143 125.5 145.5 133.5 147.5 139.5C147.5 139.5 125.5 129 102.5 130C79.5 131 59.5 145 51.5 174.5C51.5 174.5 46.5 173 42.5 176.5C38.5 180 39 187 44 193C49 199 53.5 199.5 53.5 199.5C53.5 199.5 54 185.5 63.5 181C63.5 181 47.5 200 65 222.5H135.5C135.5 222.5 144.5 207.5 128 196.5C128 196.5 137.5 198 146 209C154.5 220 160.5 222.5 160.5 222.5H176.5C176.5 222.5 180.5 213.5 169 210C157.5 206.5 164 190 164 190C164 190 166.5 176 193 164C219.5 152 230.5 140 230.5 120C230.5 120 210 93 180.5 93C172.5 93 165.5 93.5 161.5 96.5C161.5 96.5 158.5 60 105.5 42.5Z" fill="#FF5708"/>
</mask>
<g mask="url(#mask0)">
<rect x="24" y="24" width="208" height="208" fill="#FF5708"/>
</g>
</svg> 